<svg width="88" height="40" viewBox="0 0 88 40" fill="none" xmlns="http://www.w3.org/2000/svg">
<g clip-path="url(#clip0_1391_802)">
<path d="M42.7025 0H43.988V5.99701C44.4006 5.33931 44.9447 4.81913 45.6263 4.43049C46.3019 4.04185 47.0493 3.85052 47.8625 3.85052C48.8012 3.85052 49.6622 4.08371 50.4514 4.5441C51.2407 5.00448 51.8685 5.63229 52.3348 6.4275C52.8012 7.22272 53.0344 8.08969 53.0344 9.0284C53.0344 9.96712 52.8012 10.8281 52.3348 11.6293C51.8685 12.4245 51.2407 13.0523 50.4514 13.5127C49.6622 13.9731 48.8012 14.2063 47.8625 14.2063C46.9238 14.2063 46.0628 13.9731 45.2735 13.5127C44.4843 13.0523 43.8565 12.4245 43.3961 11.6293C42.9357 10.8341 42.7025 9.96712 42.7025 9.0284V0ZM45.8834 5.59641C45.2855 5.9432 44.8191 6.42152 44.4783 7.03139C44.1375 7.64126 43.9641 8.30493 43.9641 9.0284C43.9641 9.75187 44.1375 10.4155 44.4783 11.0254C44.8191 11.6353 45.2855 12.1136 45.8715 12.4604C46.4574 12.8072 47.1211 12.9806 47.8565 12.9806C48.5919 12.9806 49.2377 12.8072 49.8356 12.4604C50.4335 12.1136 50.8999 11.6353 51.2407 11.0254C51.5815 10.4155 51.7549 9.75187 51.7549 9.0284C51.7549 8.30493 51.5815 7.64126 51.2347 7.04335C50.8879 6.43946 50.4156 5.96114 49.8176 5.60837C49.2197 5.25561 48.568 5.07623 47.8625 5.07623C47.157 5.07623 46.4813 5.24963 45.8834 5.59641Z" fill="#223055"/>
<path d="M63.0135 4.54416C63.8087 5.00455 64.4365 5.63235 64.8969 6.42757C65.3573 7.22278 65.5904 8.08975 65.5904 9.02846C65.5904 9.96718 65.3573 10.8282 64.8969 11.6294C64.4365 12.4246 63.8087 13.0524 63.0135 13.5128C62.2182 13.9732 61.3513 14.2063 60.4126 14.2063C59.4738 14.2063 58.6129 13.9732 57.8236 13.5128C57.0344 13.0524 56.4066 12.4246 55.9402 11.6294C55.4738 10.8341 55.2407 9.96718 55.2407 9.02846C55.2407 8.08975 55.4738 7.22876 55.9402 6.42757C56.4066 5.63235 57.0344 5.00455 57.8236 4.54416C58.6129 4.08377 59.4738 3.85059 60.4126 3.85059C61.3513 3.85059 62.2123 4.08377 63.0135 4.54416ZM58.4574 5.59648C57.8595 5.94326 57.3931 6.42159 57.0404 7.03145C56.6936 7.64132 56.5202 8.305 56.5202 9.02846C56.5202 9.75193 56.6936 10.4156 57.0404 11.0135C57.3871 11.6174 57.8655 12.0957 58.4634 12.4485C59.0673 12.8013 59.719 12.9806 60.4305 12.9806C61.142 12.9806 61.7937 12.8072 62.3857 12.4605C62.9836 12.1137 63.4499 11.6353 63.7907 11.0255C64.1315 10.4156 64.3049 9.75193 64.3049 9.02846C64.3049 8.305 64.1315 7.64132 63.7907 7.03145C63.4499 6.42159 62.9836 5.94326 62.3976 5.59648C61.8117 5.24969 61.154 5.0763 60.4305 5.0763C59.707 5.0763 59.0493 5.24969 58.4514 5.59648" fill="#223055"/>
<path d="M69.5665 4.01196H68.281V14.0448H69.5665V4.01196Z" fill="#223055"/>
<path d="M81.8953 11.6293C81.435 12.4245 80.8072 13.0523 80.0179 13.5127C79.2287 13.9731 78.3677 14.2063 77.429 14.2063C76.4903 14.2063 75.6293 13.9731 74.84 13.5127C74.0508 13.0523 73.423 12.4245 72.9566 11.6293C72.4903 10.8341 72.2571 9.96712 72.2571 9.0284C72.2571 8.08969 72.4903 7.2287 72.9566 6.4275C73.423 5.63229 74.0508 5.00448 74.84 4.5441C75.6293 4.08371 76.4903 3.85052 77.429 3.85052C78.2421 3.85052 78.9895 4.04185 79.6652 4.43049C80.3408 4.81913 80.8849 5.33931 81.3034 5.99701V0H82.5889V9.0284C82.5889 9.96712 82.3557 10.8281 81.8953 11.6293ZM75.4738 5.60837C74.8759 5.96114 74.4095 6.43946 74.0568 7.04335C73.71 7.64723 73.5366 8.30493 73.5366 9.0284C73.5366 9.75187 73.71 10.4155 74.0508 11.0254C74.3916 11.6353 74.858 12.1136 75.4559 12.4604C76.0538 12.8072 76.7115 12.9806 77.435 12.9806C78.1584 12.9806 78.8341 12.8072 79.42 12.4604C80.006 12.1136 80.4723 11.6353 80.8131 11.0254C81.1539 10.4155 81.3273 9.75187 81.3273 9.0284C81.3273 8.30493 81.1539 7.64126 80.8131 7.03139C80.4723 6.42152 80.006 5.9432 79.4081 5.59641C78.8101 5.24963 78.1524 5.07623 77.429 5.07623C76.7055 5.07623 76.0658 5.25561 75.4738 5.60837Z" fill="#223055"/>
<path d="M68.3408 2.03875C68.1794 1.8833 68.1016 1.68599 68.1016 1.44682C68.1016 1.21962 68.1794 1.02829 68.3408 0.872832C68.5022 0.717376 68.6935 0.639648 68.9208 0.639648C69.148 0.639648 69.3393 0.717376 69.5007 0.872832C69.6622 1.02829 69.7399 1.21962 69.7399 1.44682C69.7399 1.68599 69.6622 1.8833 69.5007 2.03875C69.3393 2.19421 69.148 2.27194 68.9208 2.27194C68.6935 2.27194 68.4962 2.19421 68.3408 2.03875Z" fill="#223055"/>
<g opacity="0.3">
<mask id="mask0_1391_802" style="mask-type:luminance" maskUnits="userSpaceOnUse" x="9" y="1" width="17" height="19">
<path d="M25.5307 1.15991H9.2616V19.8804H25.5307V1.15991Z" fill="white"/>
</mask>
<g mask="url(#mask0_1391_802)">
<mask id="mask1_1391_802" style="mask-type:luminance" maskUnits="userSpaceOnUse" x="9" y="1" width="17" height="19">
<path d="M25.423 1.1958H9.32736V19.7847H25.423V1.1958Z" fill="white"/>
</mask>
<g mask="url(#mask1_1391_802)">
<path d="M25.429 5.84154L17.3752 1.1958L9.32736 5.84154V15.133L17.3752 19.7788L25.429 15.133V5.84154Z" fill="#954B97"/>
</g>
</g>
</g>
<g opacity="0.5">
<mask id="mask2_1391_802" style="mask-type:luminance" maskUnits="userSpaceOnUse" x="1" y="14" width="17" height="20">
<path d="M17.5067 14.9775H1.23767V33.9192H17.5067V14.9775Z" fill="white"/>
</mask>
<g mask="url(#mask2_1391_802)">
<mask id="mask3_1391_802" style="mask-type:luminance" maskUnits="userSpaceOnUse" x="1" y="15" width="17" height="19">
<path d="M17.3513 15.1748H1.25562V33.7637H17.3513V15.1748Z" fill="white"/>
</mask>
<g mask="url(#mask3_1391_802)">
<path d="M17.3573 19.8205L9.30345 15.1748L1.25562 19.8205V29.112L9.30345 33.7637L17.3573 29.112V19.8205Z" fill="#954B97"/>
</g>
</g>
</g>
<g opacity="0.7">
<mask id="mask4_1391_802" style="mask-type:luminance" maskUnits="userSpaceOnUse" x="9" y="19" width="17" height="20">
<path d="M25.3034 19.6592H9.03439V38.3797H25.3034V19.6592Z" fill="white"/>
</mask>
<g mask="url(#mask4_1391_802)">
<mask id="mask5_1391_802" style="mask-type:luminance" maskUnits="userSpaceOnUse" x="9" y="19" width="17" height="20">
<path d="M25.1719 19.719H9.07623V38.3079H25.1719V19.719Z" fill="white"/>
</mask>
<g mask="url(#mask5_1391_802)">
<path d="M25.1779 24.3647L17.1241 19.719L9.07623 24.3647V33.6562L17.1241 38.3079L25.1779 33.6562V24.3647Z" fill="#954B97"/>
</g>
</g>
</g>
<path d="M17.3274 10.4634L9.27354 5.81763L1.22571 10.4634V19.7608L9.27354 24.4066L17.3274 19.7608V10.4634Z" fill="#954B97"/>
<path d="M16.0837 19.9463C16.0837 19.2348 16.6637 18.6548 17.3752 18.6548C18.0867 18.6548 18.6667 19.2348 18.6667 19.9463C18.6667 20.6578 18.0867 21.2377 17.3752 21.2377C16.6637 21.2377 16.0837 20.6578 16.0837 19.9463Z" fill="#223055"/>
<path d="M16.0837 1.32737C16.0837 0.615859 16.6637 0.0358887 17.3752 0.0358887C18.0867 0.0358887 18.6667 0.615859 18.6667 1.32737C18.6667 2.03888 18.0867 2.61885 17.3752 2.61885C16.6637 2.61885 16.0837 2.03888 16.0837 1.32737Z" fill="#223055"/>
<path d="M16.0837 10.6189C16.0837 9.90736 16.6637 9.32739 17.3752 9.32739C18.0867 9.32739 18.6667 9.90736 18.6667 10.6189C18.6667 11.3304 18.0867 11.9104 17.3752 11.9104C16.6637 11.9104 16.0837 11.3304 16.0837 10.6189Z" fill="#223055"/>
<path d="M16.0837 29.2795C16.0837 28.568 16.6637 27.988 17.3752 27.988C18.0867 27.988 18.6667 28.568 18.6667 29.2795C18.6667 29.991 18.0867 30.571 17.3752 30.571C16.6637 30.571 16.0837 29.991 16.0837 29.2795Z" fill="#223055"/>
<path d="M16.0837 38.6487C16.0837 37.9371 16.6637 37.3572 17.3752 37.3572C18.0867 37.3572 18.6667 37.9371 18.6667 38.6487C18.6667 39.3602 18.0867 39.9401 17.3752 39.9401C16.6637 39.9401 16.0837 39.3602 16.0837 38.6487Z" fill="#223055"/>
<path d="M10.5949 5.99094C10.5949 6.70245 10.015 7.28242 9.30344 7.28242C8.59193 7.28242 8.01196 6.70245 8.01196 5.99094C8.01196 5.27943 8.59193 4.69946 9.30344 4.69946C10.015 4.69946 10.5949 5.27943 10.5949 5.99094Z" fill="#223055"/>
<path d="M10.5949 15.3244C10.5949 16.0359 10.015 16.6159 9.30344 16.6159C8.59193 16.6159 8.01196 16.0359 8.01196 15.3244C8.01196 14.6129 8.59193 14.033 9.30344 14.033C10.015 14.033 10.5949 14.6129 10.5949 15.3244Z" fill="#223055"/>
<path d="M10.5949 24.6518C10.5949 25.3633 10.015 25.9433 9.30344 25.9433C8.59193 25.9433 8.01196 25.3633 8.01196 24.6518C8.01196 23.9403 8.59193 23.3604 9.30344 23.3604C10.015 23.3604 10.5949 23.9403 10.5949 24.6518Z" fill="#223055"/>
<path d="M10.5949 33.9851C10.5949 34.6966 10.015 35.2766 9.30344 35.2766C8.59193 35.2766 8.01196 34.6966 8.01196 33.9851C8.01196 33.2736 8.59193 32.6936 9.30344 32.6936C10.015 32.6936 10.5949 33.2736 10.5949 33.9851Z" fill="#223055"/>
<path d="M26.7384 5.99094C26.7384 6.70245 26.1584 7.28242 25.4469 7.28242C24.7354 7.28242 24.1555 6.70245 24.1555 5.99094C24.1555 5.27943 24.7354 4.69946 25.4469 4.69946C26.1584 4.69946 26.7384 5.27943 26.7384 5.99094Z" fill="#223055"/>
<path d="M26.7384 15.3244C26.7384 16.0359 26.1584 16.6159 25.4469 16.6159C24.7354 16.6159 24.1555 16.0359 24.1555 15.3244C24.1555 14.6129 24.7354 14.033 25.4469 14.033C26.1584 14.033 26.7384 14.6129 26.7384 15.3244Z" fill="#223055"/>
<path d="M26.7384 24.6518C26.7384 25.3633 26.1584 25.9433 25.4469 25.9433C24.7354 25.9433 24.1555 25.3633 24.1555 24.6518C24.1555 23.9403 24.7354 23.3604 25.4469 23.3604C26.1584 23.3604 26.7384 23.9403 26.7384 24.6518Z" fill="#223055"/>
<path d="M26.7384 33.9851C26.7384 34.6966 26.1584 35.2766 25.4469 35.2766C24.7354 35.2766 24.1555 34.6966 24.1555 33.9851C24.1555 33.2736 24.7354 32.6936 25.4469 32.6936C26.1584 32.6936 26.7384 33.2736 26.7384 33.9851Z" fill="#223055"/>
<path d="M34.8102 10.6548C34.8102 11.3663 34.2302 11.9462 33.5187 11.9462C32.8072 11.9462 32.2272 11.3663 32.2272 10.6548C32.2272 9.94325 32.8072 9.36328 33.5187 9.36328C34.2302 9.36328 34.8102 9.94325 34.8102 10.6548Z" fill="#223055"/>
<path d="M34.8102 19.988C34.8102 20.6995 34.2302 21.2795 33.5187 21.2795C32.8072 21.2795 32.2272 20.6995 32.2272 19.988C32.2272 19.2765 32.8072 18.6965 33.5187 18.6965C34.2302 18.6965 34.8102 19.2765 34.8102 19.988Z" fill="#223055"/>
<path d="M34.8102 29.3213C34.8102 30.0328 34.2302 30.6127 33.5187 30.6127C32.8072 30.6127 32.2272 30.0328 32.2272 29.3213C32.2272 28.6098 32.8072 28.0298 33.5187 28.0298C34.2302 28.0298 34.8102 28.6098 34.8102 29.3213Z" fill="#223055"/>
<path d="M59.9342 39.8863H54.846V29.5963C54.846 26.4274 53.7877 24.9804 51.3244 24.9804C48.861 24.9804 47.8027 26.4274 47.8027 29.5963V39.8863H42.7145V29.5963C42.7145 23.2166 46.1166 20.0059 51.3244 20.0059C56.5321 20.0059 59.9342 23.2166 59.9342 29.5963V39.8863Z" fill="#954B97"/>
<path d="M65.0224 25.2854H62.0867V20.3168H65.1002C65.5306 15.3482 68.4664 12.3706 73.6323 12.3706V17.3392C71.6353 17.3811 70.1883 18.4752 70.1883 20.3108H73.6323V25.2794H70.1106V39.8743H65.0224V25.2794V25.2854Z" fill="#954B97"/>
<path d="M84 25.2855V30.6487C84 33.7817 85.0165 35.0314 87.5217 35.0314V40C82.2362 40 78.9118 36.9447 78.9118 30.6487V25.2855H76.0179V20.3169H78.9118V12.5261H84V20.3169H87.5217V25.2855H84Z" fill="#954B97"/>
<path d="M2.58296 10.9477C2.58296 11.6592 2.00299 12.2392 1.29148 12.2392C0.57997 12.2392 0 11.6592 0 10.9477C0 10.2362 0.57997 9.65625 1.29148 9.65625C2.00299 9.65625 2.58296 10.2362 2.58296 10.9477Z" fill="#223055"/>
<path d="M2.58296 20.2871C2.58296 20.9986 2.00299 21.5786 1.29148 21.5786C0.57997 21.5786 0 20.9986 0 20.2871C0 19.5756 0.57997 18.9956 1.29148 18.9956C2.00299 18.9956 2.58296 19.5756 2.58296 20.2871Z" fill="#223055"/>
<path d="M2.58296 29.6203C2.58296 30.3318 2.00299 30.9118 1.29148 30.9118C0.57997 30.9118 0 30.3318 0 29.6203C0 28.9088 0.57997 28.3289 1.29148 28.3289C2.00299 28.3289 2.58296 28.9088 2.58296 29.6203Z" fill="#223055"/>
</g>
<defs>
<clipPath id="clip0_1391_802">
<rect width="87.5276" height="40" fill="white"/>
</clipPath>
</defs>
</svg>
